<?xml version="1.0" encoding="UTF-8"?>
<svg id="Layer_1" data-name="Layer 1" xmlns="http://www.w3.org/2000/svg" xmlns:xlink="http://www.w3.org/1999/xlink" viewBox="0 0 32 32">
  <defs>
    <style>
      .cls-1 {
        fill: url(#linear-gradient);
        filter: url(#outer-glow-1);
      }

      .cls-2 {
        fill: url(#linear-gradient-5);
        filter: url(#outer-glow-4);
      }

      .cls-3 {
        fill: #46bcc0;
      }

      .cls-4 {
        fill: url(#linear-gradient-2);
        filter: url(#outer-glow-2);
      }

      .cls-5 {
        fill: url(#linear-gradient-3);
      }

      .cls-6 {
        fill: url(#linear-gradient-4);
        filter: url(#outer-glow-3);
      }
    </style>
    <linearGradient id="linear-gradient" x1="-140" y1="9.3" x2="-140.27" y2="22.73" gradientUnits="userSpaceOnUse">
      <stop offset="0" stop-color="#6ac9d2"/>
      <stop offset="1" stop-color="#37b9bd"/>
    </linearGradient>
    <filter id="outer-glow-1" x="-579" y="-423" width="878" height="878" filterUnits="userSpaceOnUse">
      <feOffset dx="0" dy="0"/>
      <feGaussianBlur result="blur" stdDeviation="144"/>
      <feFlood flood-color="#70ccd8" flood-opacity="1"/>
      <feComposite in2="blur" operator="in"/>
      <feComposite in="SourceGraphic"/>
    </filter>
    <linearGradient id="linear-gradient-2" x1="16" x2="15.73" y2="22.73" xlink:href="#linear-gradient"/>
    <filter id="outer-glow-2" x="-21" y="-21" width="74" height="74" filterUnits="userSpaceOnUse">
      <feOffset dx="0" dy="0"/>
      <feGaussianBlur result="blur-2" stdDeviation="10"/>
      <feFlood flood-color="#70ccd8" flood-opacity="1"/>
      <feComposite in2="blur-2" operator="in"/>
      <feComposite in="SourceGraphic"/>
    </filter>
    <linearGradient id="linear-gradient-3" x1="16.29" y1="1.69" x2="15.71" y2="30.36" xlink:href="#linear-gradient"/>
    <linearGradient id="linear-gradient-4" x1="-88" y1="9.3" x2="-88.27" y2="22.73" xlink:href="#linear-gradient"/>
    <filter id="outer-glow-3" x="-527" y="-423" width="878" height="878" filterUnits="userSpaceOnUse">
      <feOffset dx="0" dy="0"/>
      <feGaussianBlur result="blur-3" stdDeviation="144"/>
      <feFlood flood-color="#70ccd8" flood-opacity="1"/>
      <feComposite in2="blur-3" operator="in"/>
      <feComposite in="SourceGraphic"/>
    </filter>
    <linearGradient id="linear-gradient-5" x1="68.01" x2="67.74" xlink:href="#linear-gradient"/>
    <filter id="outer-glow-4" x="31" y="-21" width="74" height="74" filterUnits="userSpaceOnUse">
      <feOffset dx="0" dy="0"/>
      <feGaussianBlur result="blur-4" stdDeviation="10"/>
      <feFlood flood-color="#70ccd8" flood-opacity="1"/>
      <feComposite in2="blur-4" operator="in"/>
      <feComposite in="SourceGraphic"/>
    </filter>
  </defs>
  <path class="cls-1" d="M-143.63,21.33v-8.96l7.36,10.51h1.83v-12.82s.64-.96.64-.96h-3.36l.84.94v8.23l-6.84-9.17h-3.04l.71.91v11.79l-.71,1.08h3.41l-.84-1.08v-.47Z"/>
  <path class="cls-4" d="M12.37,21.33v-8.96l7.36,10.51h1.83v-12.82s.64-.96.64-.96h-3.36l.84.94v8.23l-6.84-9.17h-3.04l.71.91v11.79l-.71,1.08h3.41l-.84-1.08v-.47Z"/>
  <g>
    <path class="cls-5" d="M23.11,3.79c.68.65,1.05,1.27,1.55,2.03.46.71.46.62,1.15,1.04,7.24,4.44,7.36,13.73.04,18.17-.15.09-.66.29-.73.37-.12.12-.39.72-.52.91-2.49,3.79-7.05,5.55-11.55,4.23-2.02-.59-4.01-1.91-5.23-3.61-.28-.39-.67-1.22-.93-1.5-.17-.18-1.05-.6-1.35-.8C-1.23,20.07-.72,11.22,6.03,6.92c.22-.14.74-.36.88-.49.2-.18.81-1.31,1.09-1.67C11.6.25,18.87-.3,23.11,3.79ZM22.61,3.89C18.4.08,11.51.78,8.13,5.26c-.06.08-.61.87-.57.91.38-.1.77-.23,1.17-.28.28-.04.66-.01.92-.06.23-.04.79-.44,1.05-.56,3.64-1.69,7.36-1.49,10.94.21.16.08.45.3.59.34.39.12,1.01.09,1.45.18.25.05.52.14.76.23-.21-.45-.55-.92-.87-1.32-.29-.36-.61-.7-.96-1.01ZM22.17,6.24c-4.65-2.88-10.7-2.13-14.46,1.64s-4.33,9.16-1.94,13.46c1.82,3.28,5.12,5.63,8.99,6.05,10.64,1.17,17.02-11.61,9.82-19.14-.74-.77-1.49-1.44-2.41-2.01ZM8.99,6.27c-.63.04-1.25.25-1.81.49-.34.64-.62,1.31-.8,2,.13.03.09-.04.13-.09.45-.6.98-1.12,1.53-1.64l.96-.77ZM24.79,6.76c-.53-.17-1.13-.44-1.69-.49-.05,0-.18-.03-.17.05,1.06.63,1.86,1.56,2.67,2.45-.16-.7-.49-1.36-.8-2ZM6.52,7.13l-.79.46C1.26,10.71-.4,16.51,2.66,21.14c.99,1.49,2.28,2.72,3.86,3.61-.14-.4-.3-.79-.42-1.2-.13-.45-.2-1.02-.35-1.44-.14-.38-.53-.9-.72-1.32-1.35-3.04-1.41-6.61-.06-9.66.19-.43.45-.85.66-1.27.2-.4.19-.68.31-1.1.16-.56.39-1.08.57-1.63ZM28.38,9.51c-.83-.97-1.79-1.77-2.94-2.38.13.49.36.91.51,1.4.11.36.17.78.28,1.12.16.48.58,1.07.8,1.57,1.32,3.04,1.3,6.64-.1,9.67-.18.38-.62.99-.73,1.31-.13.4-.19.93-.32,1.37-.05.17-.44,1.12-.39,1.18.67-.37,1.27-.83,1.85-1.33,4.28-3.69,4.76-9.59,1.04-13.91ZM8.08,24.82c-.61-.54-1.16-1.1-1.66-1.75.1.7.4,1.39.72,2.01.62.32,1.31.51,2,.63-.35-.31-.71-.59-1.06-.89ZM22.93,25.71c.06.05,1.25-.31,1.42-.37.27-.11.46-.17.6-.42.3-.54.52-1.25.65-1.84-.47.57-.96,1.13-1.51,1.63-.34.31-.72.58-1.07.88-.05.04-.12,0-.09.12ZM24.41,25.76c-.36.06-.71.21-1.07.28s-.87.05-1.2.13c-.2.05-.68.39-.92.5-3.04,1.4-6.48,1.54-9.62.33-.57-.22-1.24-.68-1.76-.84-.32-.1-.75-.07-1.11-.12-.1-.02-1.17-.31-1.18-.25,2.16,3.86,6.95,5.64,11.28,4.38,2.35-.68,4.44-2.29,5.57-4.4Z"/>
    <circle class="cls-3" cx="5.73" cy="6.15" r=".27"/>
    <circle class="cls-3" cx="2.48" cy="15.97" r=".27"/>
    <circle class="cls-3" cx="29.43" cy="15.97" r=".27"/>
    <circle class="cls-3" cx="26.32" cy="6.15" r=".27"/>
    <circle class="cls-3" cx="26.29" cy="25.81" r=".27"/>
    <circle class="cls-3" cx="5.72" cy="25.82" r=".27"/>
  </g>
  <path class="cls-6" d="M-91.63,21.33v-8.96l7.36,10.51h1.83v-12.82s.64-.96.64-.96h-3.36l.84.94v8.23l-6.84-9.17h-3.04l.71.91v11.79l-.71,1.08h3.41l-.84-1.08v-.47Z"/>
  <path class="cls-2" d="M64.38,21.33v-8.96l7.36,10.51h1.83v-12.82s.64-.96.64-.96h-3.36l.84.94v8.23l-6.84-9.17h-3.04l.71.91v11.79l-.71,1.08h3.41l-.84-1.08v-.47Z"/>
</svg>