<?xml version="1.0" encoding="UTF-8"?>
<svg id="Layer_1" data-name="Layer 1" xmlns="http://www.w3.org/2000/svg" xmlns:xlink="http://www.w3.org/1999/xlink" viewBox="0 0 500 500">
  <defs>
    <style>
      .cls-1 {
        fill: url(#linear-gradient);
        filter: url(#outer-glow-1);
      }

      .cls-2 {
        filter: url(#outer-glow-2);
      }

      .cls-2, .cls-3, .cls-4, .cls-5, .cls-6, .cls-7 {
        fill: #46bcc0;
      }

      .cls-8 {
        stroke-width: .1px;
      }

      .cls-8, .cls-9, .cls-10 {
        fill: none;
        stroke: #46bcc0;
        stroke-miterlimit: 10;
      }

      .cls-9, .cls-10 {
        stroke-width: 12.32px;
      }

      .cls-3 {
        filter: url(#outer-glow-5);
      }

      .cls-10 {
        filter: url(#outer-glow-8);
      }

      .cls-4 {
        filter: url(#outer-glow-4);
      }

      .cls-5 {
        filter: url(#outer-glow-3);
      }

      .cls-6 {
        filter: url(#outer-glow-6);
      }

      .cls-7 {
        filter: url(#outer-glow-7);
      }
    </style>
    <linearGradient id="linear-gradient" x1="249.97" y1="190.52" x2="247.58" y2="309.68" gradientUnits="userSpaceOnUse">
      <stop offset="0" stop-color="#6ac9d2"/>
      <stop offset="1" stop-color="#37b9bd"/>
    </linearGradient>
    <filter id="outer-glow-1" x="178.75" y="172.75" width="143" height="155" filterUnits="userSpaceOnUse">
      <feOffset dx="0" dy="0"/>
      <feGaussianBlur result="blur" stdDeviation="5.08"/>
      <feFlood flood-color="#71cbd7" flood-opacity="1"/>
      <feComposite in2="blur" operator="in"/>
      <feComposite in="SourceGraphic"/>
    </filter>
    <filter id="outer-glow-2" x="104.97" y="115.97" width="25" height="26" filterUnits="userSpaceOnUse">
      <feOffset dx="0" dy="0"/>
      <feGaussianBlur result="blur-2" stdDeviation="3.01"/>
      <feFlood flood-color="#71cbd7" flood-opacity="1"/>
      <feComposite in2="blur-2" operator="in"/>
      <feComposite in="SourceGraphic"/>
    </filter>
    <filter id="outer-glow-3" x="369.97" y="115.97" width="26" height="26" filterUnits="userSpaceOnUse">
      <feOffset dx="0" dy="0"/>
      <feGaussianBlur result="blur-3" stdDeviation="3.01"/>
      <feFlood flood-color="#71cbd7" flood-opacity="1"/>
      <feComposite in2="blur-3" operator="in"/>
      <feComposite in="SourceGraphic"/>
    </filter>
    <filter id="outer-glow-4" x="402.97" y="236.97" width="26" height="25" filterUnits="userSpaceOnUse">
      <feOffset dx="0" dy="0"/>
      <feGaussianBlur result="blur-4" stdDeviation="3.01"/>
      <feFlood flood-color="#71cbd7" flood-opacity="1"/>
      <feComposite in2="blur-4" operator="in"/>
      <feComposite in="SourceGraphic"/>
    </filter>
    <filter id="outer-glow-5" x="369.97" y="356.97" width="26" height="26" filterUnits="userSpaceOnUse">
      <feOffset dx="0" dy="0"/>
      <feGaussianBlur result="blur-5" stdDeviation="3.01"/>
      <feFlood flood-color="#71cbd7" flood-opacity="1"/>
      <feComposite in2="blur-5" operator="in"/>
      <feComposite in="SourceGraphic"/>
    </filter>
    <filter id="outer-glow-6" x="103.97" y="356.97" width="26" height="26" filterUnits="userSpaceOnUse">
      <feOffset dx="0" dy="0"/>
      <feGaussianBlur result="blur-6" stdDeviation="3.01"/>
      <feFlood flood-color="#71cbd7" flood-opacity="1"/>
      <feComposite in2="blur-6" operator="in"/>
      <feComposite in="SourceGraphic"/>
    </filter>
    <filter id="outer-glow-7" x="71.97" y="236.97" width="26" height="25" filterUnits="userSpaceOnUse">
      <feOffset dx="0" dy="0"/>
      <feGaussianBlur result="blur-7" stdDeviation="3.01"/>
      <feFlood flood-color="#71cbd7" flood-opacity="1"/>
      <feComposite in2="blur-7" operator="in"/>
      <feComposite in="SourceGraphic"/>
    </filter>
    <filter id="outer-glow-8" x="8.93" y="8.93" width="483" height="483" filterUnits="userSpaceOnUse">
      <feOffset dx="0" dy="0"/>
      <feGaussianBlur result="blur-8" stdDeviation="7.02"/>
      <feFlood flood-color="#71cbd7" flood-opacity="1"/>
      <feComposite in2="blur-8" operator="in"/>
      <feComposite in="SourceGraphic"/>
    </filter>
  </defs>
  <rect width="500" height="500"/>
  <g>
    <path class="cls-1" d="M217.77,297.34v-79.5l65.34,93.3h16.23l.11-113.75,5.59-8.52h-29.82l7.45,8.31v73.06l-60.73-81.37h-26.97l6.34,8.11v104.59l-6.34,9.57h30.26l-7.45-9.59v-4.21Z"/>
    <circle class="cls-2" cx="117.43" cy="129.26" r="3.36"/>
    <circle class="cls-5" cx="383.21" cy="129.26" r="3.36"/>
    <circle class="cls-4" cx="415.88" cy="249.46" r="3.36"/>
    <circle class="cls-3" cx="382.82" cy="370.3" r="3.36"/>
    <circle class="cls-6" cx="117.22" cy="370.32" r="3.36"/>
    <circle class="cls-7" cx="85.18" cy="249.55" r="3.36"/>
    <circle class="cls-10" cx="250" cy="250" r="212.92"/>
    <path class="cls-8" d="M120.21,313.66c-9.73-19.26-15.21-40.99-15.21-63.98s5.68-45.51,15.74-65.02"/>
    <path class="cls-8" d="M203.66,113.83c14.52-4.83,30.06-7.45,46.23-7.45s31.71,2.62,46.23,7.45"/>
    <path class="cls-8" d="M192.32,381.21c17.64,7.56,37.11,11.76,57.56,11.76s39.92-4.19,57.56-11.76"/>
    <path class="cls-8" d="M376.65,180.24c11.54,20.57,18.12,44.24,18.12,69.43s-6.36,48.08-17.55,68.41"/>
    <path class="cls-9" d="M376.65,180.24c-5.32-16.73-12.49-32.19-21.18-45.93-25.29-40-63.43-65.47-106.1-65.47s-81.32,25.81-106.6,66.28c-9.21,14.74-16.69,31.43-22.02,49.53"/>
    <path class="cls-9" d="M377.22,318.08c-4.89,15.86-11.44,30.61-19.36,43.86-25.24,42.23-64.46,69.36-108.49,69.36s-83.75-27.48-108.98-70.19c-8.43-14.27-15.27-30.24-20.18-47.46"/>
    <path class="cls-9" d="M192.32,381.21c-18.82-4.63-36.31-11.46-51.93-20.09-45.88-25.35-75.66-66.24-75.66-112.35s30.81-88.4,78.04-113.64c18.14-9.7,38.71-17,60.89-21.29"/>
    <path class="cls-9" d="M307.45,381.21c18.21-4.48,35.18-11.02,50.41-19.26,46.74-25.29,77.18-66.56,77.18-113.18s-31.48-89.29-79.57-114.45c-17.77-9.3-37.8-16.31-59.36-20.48"/>
    <ellipse class="cls-9" cx="250" cy="249.67" rx="145" ry="143.29"/>
  </g>
</svg>