<?xml version="1.0" encoding="UTF-8"?>
<svg id="Layer_1" data-name="Layer 1" xmlns="http://www.w3.org/2000/svg" xmlns:xlink="http://www.w3.org/1999/xlink" viewBox="0 0 500 500">
  <defs>
    <style>
      .cls-1 {
        stroke-width: .11px;
      }

      .cls-1, .cls-2 {
        fill: none;
        stroke: #46bcc0;
        stroke-miterlimit: 10;
      }

      .cls-3 {
        fill: #46bcc0;
      }

      .cls-2 {
        stroke-width: 12.42px;
      }

      .cls-4 {
        fill: url(#linear-gradient);
      }
    </style>
    <linearGradient id="linear-gradient" x1="249.97" y1="190.04" x2="247.56" y2="310.15" gradientUnits="userSpaceOnUse">
      <stop offset="0" stop-color="#6ac9d2"/>
      <stop offset="1" stop-color="#37b9bd"/>
    </linearGradient>
  </defs>
  <path class="cls-4" d="M217.51,297.71v-80.13l65.86,94.04h16.35l.11-114.65,5.63-8.59h-30.06l7.51,8.37v73.64l-61.22-82.02h-27.18l6.39,8.18v105.42l-6.39,9.64h30.5l-7.51-9.66v-4.25Z"/>
  <circle class="cls-3" cx="116.38" cy="128.3" r="3.39"/>
  <circle class="cls-3" cx="384.27" cy="128.3" r="3.39"/>
  <circle class="cls-3" cx="417.19" cy="249.46" r="3.39"/>
  <circle class="cls-3" cx="383.87" cy="371.26" r="3.39"/>
  <circle class="cls-3" cx="116.16" cy="371.28" r="3.39"/>
  <circle class="cls-3" cx="83.88" cy="249.55" r="3.39"/>
  <circle class="cls-2" cx="250" cy="250" r="214.61"/>
  <path class="cls-1" d="M119.18,314.16c-9.81-19.41-15.33-41.31-15.33-64.49s5.72-45.87,15.87-65.54"/>
  <path class="cls-1" d="M203.29,112.75c14.63-4.87,30.3-7.51,46.6-7.51s31.96,2.64,46.59,7.51"/>
  <path class="cls-1" d="M191.87,382.25c17.78,7.62,37.4,11.85,58.02,11.85s40.24-4.23,58.02-11.85"/>
  <path class="cls-1" d="M377.66,179.69c11.64,20.73,18.26,44.59,18.26,69.99s-6.41,48.46-17.69,68.95"/>
  <path class="cls-2" d="M377.66,179.69c-5.36-16.86-12.59-32.44-21.35-46.29-25.49-40.32-63.93-65.99-106.94-65.99s-81.96,26.02-107.45,66.81c-9.29,14.86-16.82,31.68-22.2,49.92"/>
  <path class="cls-2" d="M378.23,318.62c-4.93,15.99-11.53,30.85-19.51,44.21-25.45,42.57-64.97,69.91-109.35,69.91s-84.42-27.7-109.84-70.75c-8.5-14.39-15.39-30.48-20.34-47.84"/>
  <path class="cls-2" d="M191.87,382.25c-18.97-4.66-36.59-11.55-52.34-20.25-46.25-25.56-76.27-66.76-76.27-113.24s31.06-89.1,78.66-114.54c18.29-9.78,39.02-17.14,61.37-21.46"/>
  <path class="cls-2" d="M307.91,382.25c18.35-4.51,35.46-11.11,50.81-19.41,47.11-25.49,77.79-67.09,77.79-114.08s-31.73-90-80.2-115.36c-17.91-9.37-38.1-16.44-59.83-20.64"/>
  <ellipse class="cls-2" cx="250" cy="249.67" rx="146.15" ry="144.43"/>
</svg>