<?xml version="1.0" encoding="UTF-8"?>
<svg id="Layer_1" data-name="Layer 1" xmlns="http://www.w3.org/2000/svg" xmlns:xlink="http://www.w3.org/1999/xlink" viewBox="0 0 1000 1000">
  <defs>
    <style>
      .cls-1 {
        fill: url(#linear-gradient);
        filter: url(#outer-glow-1);
      }

      .cls-2 {
        filter: url(#outer-glow-2);
      }

      .cls-2, .cls-3, .cls-4, .cls-5, .cls-6, .cls-7 {
        fill: #46bcc0;
      }

      .cls-8 {
        stroke-width: .22px;
      }

      .cls-8, .cls-9, .cls-10 {
        fill: none;
        stroke: #46bcc0;
        stroke-miterlimit: 10;
      }

      .cls-3 {
        filter: url(#outer-glow-5);
      }

      .cls-4 {
        filter: url(#outer-glow-4);
      }

      .cls-5 {
        filter: url(#outer-glow-3);
      }

      .cls-9 {
        filter: url(#outer-glow-8);
      }

      .cls-9, .cls-10 {
        stroke-width: 25.6px;
      }

      .cls-6 {
        filter: url(#outer-glow-6);
      }

      .cls-7 {
        filter: url(#outer-glow-7);
      }
    </style>
    <linearGradient id="linear-gradient" x1="499.93" y1="376.39" x2="494.97" y2="624.01" gradientUnits="userSpaceOnUse">
      <stop offset="0" stop-color="#6ac9d2"/>
      <stop offset="1" stop-color="#37b9bd"/>
    </linearGradient>
    <filter id="outer-glow-1" x="353.31" y="340.31" width="294" height="320" filterUnits="userSpaceOnUse">
      <feOffset dx="0" dy="0"/>
      <feGaussianBlur result="blur" stdDeviation="10.56"/>
      <feFlood flood-color="#71cbd7" flood-opacity="1"/>
      <feComposite in2="blur" operator="in"/>
      <feComposite in="SourceGraphic"/>
    </filter>
    <filter id="outer-glow-2" x="198.24" y="223.24" width="53" height="53" filterUnits="userSpaceOnUse">
      <feOffset dx="0" dy="0"/>
      <feGaussianBlur result="blur-2" stdDeviation="6.25"/>
      <feFlood flood-color="#71cbd7" flood-opacity="1"/>
      <feComposite in2="blur-2" operator="in"/>
      <feComposite in="SourceGraphic"/>
    </filter>
    <filter id="outer-glow-3" x="750.24" y="223.24" width="53" height="53" filterUnits="userSpaceOnUse">
      <feOffset dx="0" dy="0"/>
      <feGaussianBlur result="blur-3" stdDeviation="6.25"/>
      <feFlood flood-color="#71cbd7" flood-opacity="1"/>
      <feComposite in2="blur-3" operator="in"/>
      <feComposite in="SourceGraphic"/>
    </filter>
    <filter id="outer-glow-4" x="818.24" y="472.24" width="53" height="53" filterUnits="userSpaceOnUse">
      <feOffset dx="0" dy="0"/>
      <feGaussianBlur result="blur-4" stdDeviation="6.25"/>
      <feFlood flood-color="#71cbd7" flood-opacity="1"/>
      <feComposite in2="blur-4" operator="in"/>
      <feComposite in="SourceGraphic"/>
    </filter>
    <filter id="outer-glow-5" x="749.24" y="723.24" width="53" height="53" filterUnits="userSpaceOnUse">
      <feOffset dx="0" dy="0"/>
      <feGaussianBlur result="blur-5" stdDeviation="6.25"/>
      <feFlood flood-color="#71cbd7" flood-opacity="1"/>
      <feComposite in2="blur-5" operator="in"/>
      <feComposite in="SourceGraphic"/>
    </filter>
    <filter id="outer-glow-6" x="198.24" y="724.24" width="53" height="53" filterUnits="userSpaceOnUse">
      <feOffset dx="0" dy="0"/>
      <feGaussianBlur result="blur-6" stdDeviation="6.25"/>
      <feFlood flood-color="#71cbd7" flood-opacity="1"/>
      <feComposite in2="blur-6" operator="in"/>
      <feComposite in="SourceGraphic"/>
    </filter>
    <filter id="outer-glow-7" x="131.24" y="473.24" width="53" height="53" filterUnits="userSpaceOnUse">
      <feOffset dx="0" dy="0"/>
      <feGaussianBlur result="blur-7" stdDeviation="6.25"/>
      <feFlood flood-color="#71cbd7" flood-opacity="1"/>
      <feComposite in2="blur-7" operator="in"/>
      <feComposite in="SourceGraphic"/>
    </filter>
    <filter id="outer-glow-8" x=".22" y=".22" width="1000" height="1000" filterUnits="userSpaceOnUse">
      <feOffset dx="0" dy="0"/>
      <feGaussianBlur result="blur-8" stdDeviation="14.59"/>
      <feFlood flood-color="#71cbd7" flood-opacity="1"/>
      <feComposite in2="blur-8" operator="in"/>
      <feComposite in="SourceGraphic"/>
    </filter>
  </defs>
  <path class="cls-1" d="M433.03,598.36v-165.2l135.77,193.87h33.72l.23-236.37,11.61-17.71h-61.96l15.49,17.26v151.82l-126.2-169.09h-56.04l13.18,16.86v217.34l-13.18,19.88h62.87l-15.49-19.92v-8.76Z"/>
  <circle class="cls-2" cx="224.53" cy="249.11" r="6.99"/>
  <circle class="cls-5" cx="776.81" cy="249.11" r="6.99"/>
  <circle class="cls-4" cx="844.68" cy="498.88" r="6.99"/>
  <circle class="cls-3" cx="775.99" cy="749.98" r="6.99"/>
  <circle class="cls-6" cx="224.09" cy="750.03" r="6.99"/>
  <circle class="cls-7" cx="157.52" cy="499.07" r="6.99"/>
  <circle class="cls-9" cx="500" cy="500" r="442.43"/>
  <path class="cls-8" d="M230.31,632.27c-20.23-40.02-31.61-85.17-31.61-132.95s11.79-94.56,32.71-135.11"/>
  <path class="cls-8" d="M403.7,217.05c30.17-10.04,62.47-15.48,96.06-15.48s65.89,5.44,96.06,15.48"/>
  <path class="cls-8" d="M380.15,772.64c36.66,15.72,77.11,24.43,119.61,24.43s82.95-8.71,119.61-24.43"/>
  <path class="cls-8" d="M763.18,355.04c23.99,42.74,37.65,91.93,37.65,144.28s-13.21,99.91-36.46,142.15"/>
  <path class="cls-10" d="M763.18,355.04c-11.05-34.76-25.96-66.88-44.02-95.44-52.56-83.12-131.81-136.04-220.46-136.04s-168.97,53.64-221.52,137.73c-19.15,30.64-34.69,65.31-45.76,102.91"/>
  <path class="cls-10" d="M764.36,641.47c-10.16,32.96-23.76,63.6-40.23,91.15-52.46,87.76-133.93,144.12-225.43,144.12s-174.04-57.11-226.45-145.85c-17.52-29.66-31.74-62.85-41.93-98.62"/>
  <path class="cls-10" d="M380.15,772.64c-39.1-9.61-75.44-23.81-107.91-41.75-95.34-52.68-157.23-137.64-157.23-233.46s64.03-183.69,162.16-236.14c37.7-20.16,80.44-35.33,126.52-44.24"/>
  <path class="cls-10" d="M619.38,772.64c37.84-9.3,73.09-22.9,104.75-40.02,97.13-52.54,160.38-138.31,160.38-235.19s-65.41-185.55-165.35-237.83c-36.92-19.32-78.55-33.89-123.34-42.55"/>
  <ellipse class="cls-10" cx="500" cy="499.32" rx="301.29" ry="297.75"/>
</svg>