<?xml version="1.0" encoding="UTF-8"?>
<svg id="Layer_1" data-name="Layer 1" xmlns="http://www.w3.org/2000/svg" xmlns:xlink="http://www.w3.org/1999/xlink" viewBox="0 0 1000 1000">
  <defs>
    <style>
      .cls-1 {
        stroke-width: 25.75px;
      }

      .cls-1, .cls-2 {
        fill: none;
        stroke: #46bcc0;
        stroke-miterlimit: 10;
      }

      .cls-3 {
        fill: #46bcc0;
      }

      .cls-2 {
        stroke-width: .22px;
      }

      .cls-4 {
        fill: url(#linear-gradient);
      }
    </style>
    <linearGradient id="linear-gradient" x1="499.93" y1="375.67" x2="494.94" y2="624.74" gradientUnits="userSpaceOnUse">
      <stop offset="0" stop-color="#6ac9d2"/>
      <stop offset="1" stop-color="#37b9bd"/>
    </linearGradient>
  </defs>
  <path class="cls-4" d="M432.63,598.94v-166.17l136.57,195.01h33.91l.24-237.76,11.68-17.81h-62.33l15.58,17.36v152.72l-126.95-170.08h-56.37l13.25,16.95v218.62l-13.25,20h63.24l-15.58-20.04v-8.81Z"/>
  <circle class="cls-3" cx="222.91" cy="247.64" r="7.03"/>
  <circle class="cls-3" cx="778.44" cy="247.64" r="7.03"/>
  <circle class="cls-3" cx="846.71" cy="498.88" r="7.03"/>
  <circle class="cls-3" cx="777.61" cy="751.45" r="7.03"/>
  <circle class="cls-3" cx="222.46" cy="751.5" r="7.03"/>
  <circle class="cls-3" cx="155.51" cy="499.06" r="7.03"/>
  <circle class="cls-1" cx="500" cy="500" r="445.04"/>
  <path class="cls-2" d="M228.72,633.05c-20.34-40.25-31.79-85.67-31.79-133.73s11.86-95.12,32.9-135.91"/>
  <path class="cls-2" d="M403.14,215.39c30.34-10.1,62.84-15.57,96.63-15.57s66.28,5.47,96.62,15.57"/>
  <path class="cls-2" d="M379.45,774.25c36.88,15.81,77.56,24.57,120.32,24.57s83.44-8.76,120.32-24.57"/>
  <path class="cls-2" d="M764.72,354.19c24.13,42.99,37.87,92.47,37.87,145.13s-13.29,100.5-36.68,142.99"/>
  <path class="cls-1" d="M764.72,354.19c-11.12-34.97-26.11-67.28-44.27-96-52.86-83.61-132.58-136.84-221.76-136.84s-169.97,53.95-222.82,138.54c-19.26,30.82-34.89,65.7-46.03,103.52"/>
  <path class="cls-1" d="M765.92,642.3c-10.22,33.15-23.9,63.97-40.47,91.68-52.77,88.27-134.72,144.97-226.76,144.97s-175.06-57.44-227.79-146.71c-17.62-29.83-31.92-63.22-42.18-99.2"/>
  <path class="cls-1" d="M379.45,774.25c-39.33-9.67-75.89-23.95-108.54-42-95.9-52.99-158.15-138.44-158.15-234.83s64.4-184.77,163.12-237.53c37.93-20.28,80.92-35.54,127.27-44.5"/>
  <path class="cls-1" d="M620.08,774.25c38.06-9.36,73.52-23.03,105.37-40.26,97.7-52.85,161.32-139.12,161.32-236.57s-65.8-186.64-166.32-239.23c-37.14-19.43-79.01-34.09-124.06-42.8"/>
  <ellipse class="cls-1" cx="500" cy="499.32" rx="303.07" ry="299.5"/>
</svg>