<?xml version="1.0" encoding="UTF-8"?>
<svg id="Layer_1" data-name="Layer 1" xmlns="http://www.w3.org/2000/svg" xmlns:xlink="http://www.w3.org/1999/xlink" viewBox="0 0 2500 2500">
  <defs>
    <style>
      .cls-1 {
        fill: #46bcc0;
      }

      .cls-2 {
        stroke-width: 62.8px;
      }

      .cls-2, .cls-3 {
        fill: none;
        stroke: #46bcc0;
        stroke-miterlimit: 10;
      }

      .cls-3 {
        stroke-width: .53px;
      }

      .cls-4 {
        fill: url(#linear-gradient);
      }
    </style>
    <linearGradient id="linear-gradient" x1="1249.83" y1="946.8" x2="1237.66" y2="1554.18" gradientUnits="userSpaceOnUse">
      <stop offset="0" stop-color="#6ac9d2"/>
      <stop offset="1" stop-color="#37b9bd"/>
    </linearGradient>
  </defs>
  <path class="cls-4" d="M1085.72,1491.27v-405.22l333.04,475.56h82.7l.57-579.79,28.48-43.43h-151.99l38,42.34v372.41l-309.57-414.76h-137.46l32.32,41.35v533.11l-32.32,48.76h154.22l-38-48.86v-21.48Z"/>
  <circle class="cls-1" cx="574.3" cy="634.6" r="17.14"/>
  <circle class="cls-1" cx="1928.99" cy="634.6" r="17.14"/>
  <circle class="cls-1" cx="2095.47" cy="1247.26" r="17.14"/>
  <circle class="cls-1" cx="1926.97" cy="1863.19" r="17.14"/>
  <circle class="cls-1" cx="573.2" cy="1863.29" r="17.14"/>
  <circle class="cls-1" cx="409.93" cy="1247.71" r="17.14"/>
  <circle class="cls-2" cx="1250" cy="1250" r="1085.25"/>
  <path class="cls-3" d="M588.48,1574.45c-49.61-98.16-77.53-208.91-77.53-326.12s28.93-231.95,80.23-331.42"/>
  <path class="cls-3" d="M1013.79,555.96c74-24.63,153.24-37.97,235.63-37.97s161.62,13.34,235.62,37.97"/>
  <path class="cls-3" d="M956.02,1918.77c89.93,38.55,189.14,59.92,293.4,59.92s203.47-21.37,293.4-59.92"/>
  <path class="cls-3" d="M1895.55,894.43c58.84,104.84,92.34,225.5,92.34,353.91s-32.4,245.07-89.44,348.68"/>
  <path class="cls-2" d="M1895.55,894.43c-27.11-85.27-63.67-164.06-107.97-234.1-128.91-203.89-323.31-333.71-540.77-333.71s-414.48,131.57-543.37,337.84c-46.97,75.15-85.08,160.21-112.26,252.44"/>
  <path class="cls-2" d="M1898.45,1597.02c-24.92,80.85-58.29,156-98.68,223.57-128.67,215.26-328.53,353.52-552.96,353.52s-426.9-140.08-555.47-357.75c-42.97-72.74-77.85-154.16-102.86-241.9"/>
  <path class="cls-2" d="M956.02,1918.77c-95.91-23.58-185.05-58.41-264.68-102.42-233.87-129.23-385.67-337.61-385.67-572.65s157.05-450.56,397.77-579.23c92.48-49.44,197.32-86.66,310.35-108.51"/>
  <path class="cls-2" d="M1542.82,1918.77c92.81-22.81,179.29-56.17,256.95-98.18,238.24-128.89,393.4-339.26,393.4-576.89s-160.46-455.13-405.58-583.37c-90.56-47.39-192.68-83.14-302.54-104.38"/>
  <ellipse class="cls-2" cx="1250" cy="1248.34" rx="739.05" ry="730.35"/>
</svg>